Coordinates
version=1
nRows=19
nColumns=36
inDegrees=yes

Units are S.I. units (second, meters, Newtons, ...)
If the header above contains a line with 'inDegrees', this indicates whether rotational values are in degrees (yes) or radians (no).

endheader
time	pelvis_tilt	pelvis_list	pelvis_rotation	pelvis_tx	pelvis_ty	pelvis_tz	hip_flexion_r	hip_adduction_r	hip_rotation_r	knee_angle_r	knee_angle_r_beta	ankle_angle_r	subtalar_angle_r	mtp_angle_r	hip_flexion_l	hip_adduction_l	hip_rotation_l	knee_angle_l	knee_angle_l_beta	ankle_angle_l	subtalar_angle_l	mtp_angle_l	lumbar_extension	lumbar_bending	lumbar_rotation	arm_flex_r	arm_add_r	arm_rot_r	elbow_flex_r	pro_sup_r	arm_flex_l	arm_add_l	arm_rot_l	elbow_flex_l	pro_sup_l
      6.46666670	    -40.93344618	     -8.57029069	      2.44452768	      1.07788190	      0.65153358	     -0.04894624	     94.28283052	    -14.90426023	    -10.85377188	     87.09899192	      1.52016418	     34.69609908	     -5.96401677	     -7.49999987	    101.08378871	    -19.15633982	      5.09948079	     87.38744267	      1.52519860	     35.00226607	     -5.06951280	     -7.49999987	    -14.08359854	      9.34416678	     15.55009946	     91.24519017	    -10.95952230	     82.45842046	    131.47672109	     64.79074220	     84.59814795	      7.75699205	     69.10140182	    110.21946259	     92.51212466
      6.48333330	    -40.03723680	     -8.49847192	      2.45421730	      1.08341565	      0.66675215	     -0.04556584	     91.63049623	    -14.45555997	    -11.32571571	     84.94186236	      1.48251517	     34.61408009	     -5.63435539	     -7.49999987	     98.30832250	    -19.61663144	      4.50186578	     85.37994567	      1.49016117	     34.99004109	     -4.44846407	     -7.49999987	    -13.86432348	      9.24436703	     15.03091235	     90.45808393	    -10.14410366	     82.18952353	    131.20521796	     65.05568008	     84.09909625	      7.58471287	     69.04923767	    110.93496619	     90.88043222
      6.50000000	    -39.29405092	     -8.45295947	      2.31551510	      1.07914992	      0.68162381	     -0.04904646	     89.19470582	    -13.89371580	    -11.83365783	     82.68889540	      1.44319348	     33.97723174	     -5.82972772	     -7.49999987	     95.81917048	    -20.22527597	      3.81623935	     83.39779122	      1.45556605	     34.74033791	     -3.75682148	     -7.49999987	    -14.22021833	      9.35922079	     14.90548712	     90.45908649	    -11.25807367	     83.13174944	    130.99037289	     65.53625226	     83.72275933	      7.25441066	     70.23221678	    109.90141884	     91.30113613
      6.51666670	    -37.39472476	     -8.28834490	      2.29754023	      1.09033278	      0.69708529	     -0.04907669	     85.36094404	    -13.32581865	    -12.36775010	     80.15588095	      1.39898404	     33.56701927	     -5.60006834	     -7.49999987	     91.82663627	    -20.79017710	      3.02871250	     81.20027750	      1.41721220	     34.68465554	     -2.75494834	     -7.49999987	    -15.55221901	      9.05000235	     14.90029648	     90.82732219	    -10.18535069	     83.16981676	    132.15139454	     66.77078519	     84.21596380	      7.90296467	     69.91593640	    110.79978958	     92.25149212
      6.53333330	    -36.19044774	     -8.02638955	      2.26977908	      1.08669542	      0.70467426	     -0.05163047	     82.67648704	    -13.02661387	    -12.69109821	     78.12856139	      1.36360064	     33.18535090	     -5.16434330	     -7.49999987	     88.76948474	    -21.22393212	      2.01810365	     79.20412609	      1.38237278	     34.47270395	     -2.15196282	     -7.49999987	    -15.93784096	      8.86705885	     14.29351376	     90.77510027	    -10.30139307	     80.68522165	    132.62298079	     81.92437979	     84.71436592	      7.99189918	     69.69132131	    110.73309530	    102.24507473
      6.55000000	    -34.93522198	     -7.73883231	      2.21732716	      1.09191771	      0.71461944	     -0.04946219	     80.04723785	    -12.71488590	    -12.99690617	     76.14844510	      1.32904109	     32.78187197	     -4.74096215	     -7.49999987	     85.76729364	    -21.57089150	      1.12463273	     77.33514861	      1.34975297	     34.36825229	     -1.51219410	     -7.49999987	    -16.11771266	      8.51819665	     13.61763917	     90.61651745	     -8.80360743	     79.34452573	    132.91458132	     81.13122079	     85.34089657	      7.50908433	     69.02909156	    112.62763242	    101.41170900
      6.56666670	    -33.29736849	     -7.37171025	      2.17188775	      1.09993395	      0.73671478	     -0.05269357	     76.54197032	    -12.38704744	    -13.37428166	     73.49266543	      1.28268899	     32.34428166	     -4.17123833	     -7.49999987	     81.81765536	    -21.84131321	      0.01114516	     74.83010443	      1.30603170	     34.13220853	     -0.76052179	     -7.49999987	    -17.28447455	      8.26067267	     13.24396241	     90.03727305	     -8.78747208	     79.93108187	    132.18106833	     80.84523679	     84.67863210	      7.04278347	     70.03495036	    111.62366518	     99.64994361
      6.58333330	    -31.28050201	     -6.93480103	      2.10773963	      1.10575777	      0.75676011	     -0.05528894	     72.30879750	    -12.00861213	    -13.73938426	     70.29636984	      1.22690311	     31.56024087	     -3.66389878	     -7.49999987	     77.01489155	    -22.08600396	     -1.38991447	     71.79461450	      1.25305241	     33.60143384	      0.06626721	     -7.49999987	    -18.71712618	      7.84518753	     12.35387754	     87.45026773	     -8.45648155	     79.04684767	    131.35171515	     79.75885085	     83.50165500	      6.21176615	     70.52754798	    111.19735249	     98.32748543
      6.60000000	    -29.01745565	     -6.36071797	      2.06669533	      1.11436788	      0.76980165	     -0.05258742	     67.83527989	    -11.65699660	    -13.87546516	     67.12201903	      1.17150023	     30.99639668	     -2.84284615	     -7.49999987	     71.77187113	    -22.17968093	     -2.95942780	     68.64143064	      1.19801897	     33.09351350	      0.94625588	     -7.49999987	    -19.85122716	      7.17593533	     11.40479518	     85.97763356	     -7.21677942	     76.45141416	    131.51853425	     89.64356827	     82.76037494	      5.46809820	     68.97379224	    112.25669482	    104.27148099
      6.61666670	    -26.52735905	     -5.63407935	      1.93725531	      1.12518050	      0.78368045	     -0.05869509	     63.23511079	    -11.38803700	    -13.78173966	     64.06499620	      1.11814512	     30.45103033	     -2.02265935	     -7.49999987	     66.15993336	    -22.16942736	     -4.81703698	     65.45949632	      1.14248374	     32.87680667	      2.02899762	     -7.49999987	    -21.08015592	      6.37624332	     10.58571796	     84.50811347	     -6.39053716	     75.27010344	    131.59601025	     90.07127159	     81.10869372	      5.19114022	     68.10420729	    112.53788626	    104.03660930
      6.63333330	    -23.36116449	     -4.73022056	      1.81569989	      1.13261220	      0.80291639	     -0.06229047	     57.71693170	    -11.29645963	    -13.66451695	     60.62785121	      1.05815562	     29.81990248	     -1.01752462	     -7.49999987	     59.45766012	    -21.82752252	     -6.95260059	     61.77688861	      1.07821011	     32.47446081	      3.08059408	     -7.49999987	    -23.02944476	      5.55543753	      9.78345972	     83.40052438	     -6.39432046	     73.71919696	    131.83736964	     90.56710465	     79.79924429	      4.75207641	     67.36772624	    111.06476785	    103.82643983
      6.65000000	    -19.89419284	     -3.77303876	      1.56834973	      1.13269478	      0.82108790	     -0.06200791	     52.01168472	    -11.20105616	    -13.37500140	     57.22820152	      0.99882054	     29.04495629	     -0.00947980	     -7.49999987	     52.53598612	    -21.45063165	     -9.34388483	     58.06337411	      1.01339705	     31.90524358	      4.26669252	     -7.49999987	    -25.54404445	      4.53461843	      9.00892290	     83.40919905	     -5.56061960	     72.29562637	    131.56480818	     91.63391893	     80.44710710	      4.20630969	     67.67583962	    111.38394513	    103.95132511
      6.66666670	    -17.49955239	     -2.99217213	      1.35528818	      1.13509787	      0.82953808	     -0.06081057	     47.98915107	    -11.27210925	    -13.13931978	     54.72970004	      0.95521346	     28.47104104	      1.00887716	     -7.49999987	     47.52238486	    -20.94033462	    -11.17715479	     55.18304866	      0.96312589	     31.60820397	      5.41245072	     -7.49999987	    -26.68570620	      3.63634709	      8.12923028	     83.44365294	     -4.41423641	     70.19976943	    131.27776153	     96.65613447	     81.49968738	      3.63526525	     67.90816163	    111.32956462	    104.33962417
      6.68333330	    -15.20625561	     -2.22890234	      1.18079111	      1.13516186	      0.84552735	     -0.05949613	     44.12801093	    -11.46195019	    -13.06343971	     52.21989373	      0.91140908	     27.68701393	      1.88082586	     -7.49999987	     42.73281008	    -20.24969546	    -12.88562721	     52.10700560	      0.90943881	     31.09227140	      6.35084288	     -7.49999987	    -27.95676338	      2.89655988	      7.60076136	     83.78111558	     -4.03462186	     70.03961621	    131.05950284	     95.92050366	     81.90350364	      2.91517658	     68.57095892	    111.15704114	    102.21446540
      6.70000000	    -12.70594610	     -1.34862247	      0.92479707	      1.14267016	      0.86010685	     -0.06240660	     39.96397107	    -11.84884827	    -13.09275364	     49.55441929	      0.86488778	     26.86577091	      2.85189612	     -7.49999987	     37.42532658	    -19.20331467	    -14.54147819	     48.52026758	      0.84683842	     30.22008970	      6.98996534	     -7.49999987	    -29.20724219	      2.12907993	      6.85281258	     83.51510694	     -3.22553047	     68.91425469	    130.41186767	     96.64793547	     81.35911054	      2.48678041	     68.30300569	    112.63106281	    102.43276935
      6.71666670	    -10.60743908	     -0.64226231	      0.59939533	      1.14738897	      0.86491480	     -0.05899583	     36.49779127	    -12.06352168	    -12.94824093	     47.39336103	      0.82717019	     26.31172241	      3.58353568	     -7.49999987	     32.89815152	    -18.28387882	    -15.85951558	     45.39232438	      0.79224552	     29.63891468	      7.67123497	     -7.49999987	    -29.46177043	      1.50082322	      6.27715209	     83.27805573	     -2.32675332	     67.15962171	    130.76048153	     97.25882141	     80.40420443	      1.98086883	     67.61801430	    115.75075564	    102.51060460
      6.73333330	     -7.95144239	     -0.11729255	      0.36922101	      1.14929812	      0.87831777	     -0.05883520	     32.08377778	    -12.15795032	    -13.18933294	     44.64201961	      0.77915023	     25.59735464	      4.16972947	     -7.49999987	     27.73339530	    -17.32733542	    -17.04405415	     41.87524414	      0.73086089	     28.69878504	      8.16885323	     -7.49999987	    -30.40931431	      1.17597916	      5.50949225	     83.59942358	     -0.56346544	     67.92418363	    130.40659582	     98.51516291	     80.01051774	      1.67943449	     66.42145722	    116.74975650	    102.65115271
      6.75000000	     -6.17265132	      0.27383822	      0.17908728	      1.14874798	      0.88952863	     -0.05859111	     28.68537239	    -12.13383341	    -13.42137009	     41.90835814	      0.73143883	     24.68979682	      4.49818976	     -7.49999987	     23.85104614	    -16.44899729	    -17.99831749	     38.60845621	      0.67384468	     27.54814037	      8.50829982	     -7.49999987	    -30.93135947	      0.86340010	      5.08496295	     83.77014766	     -0.38102220	     66.80118253	    129.81131602	     99.54766265	     80.24552368	      1.87722888	     66.36686083	    117.16300772	    102.97037887
      6.76666670	     -4.59322050	      0.51391574	     -0.01951791	      1.15051329	      0.89775610	     -0.05772466	     25.55981037	    -11.91995876	    -13.55722638	     39.24368557	      0.68493152	     23.76115056	      4.77894724	     -7.49999987	     20.40110396	    -15.65771578	    -18.64055802	     35.54027769	      0.62029486	     26.49034984	      8.62878508	     -7.49999987	    -30.98497400	      0.62233267	      4.99789248	     83.23497981	      0.46317852	     65.93952842	    128.80595333	    100.80809708	     79.85391082	      2.21379732	     66.79722624	    116.51461646	    103.64922545
